<svg
  xmlns="http://www.w3.org/2000/svg"
  width="366.947"
  height="748.997"
  version="1.1"
  viewBox="0 0 97.088 198.172"
  xmlSpace="preserve"
>
  <g transform="translate(-112.26 -33.482)">
    <g fill="#38b263" fillOpacity="1" strokeWidth="0.265">
      <path
        d="M166.075 166.815a.591.591 0 00.23-.092c4.013-2.984 9.817-17.673 1.809-24.386-6.618-5.547-9.186-6.941-16.592-17.877-.102-.15-.187-.275-.328-.27-.141.007-.147.098-.201.245-2.426 6.555-6.69 30.065 14.567 42.248.228.1.384.16.515.132z"
        opacity="1"
      ></path>
      <path d="M175.78 130.18a.59.59 0 00.185-.165c2.741-4.183 3.14-19.971-6.69-23.52-8.12-2.934-11.012-3.36-21.728-11.081-.146-.105-.27-.194-.4-.14-.13.054-.104.141-.105.299-.023 6.989 4.059 30.531 28.21 34.66.247.015.414.018.528-.053z"></path>
      <path d="M172.806 94.174a.59.59 0 00.117-.218c1.156-4.865-3.837-19.85-14.287-19.845-8.635.003-11.499.585-24.201-3.033-.174-.05-.32-.091-.424.004-.105.095-.05.169.004.317 2.354 6.58 14.197 27.332 38.312 23.004.239-.07.397-.123.48-.229z"></path>
      <path d="M147.81 197.796a.574.574 0 00.248-.021c4.705-1.694 14.515-14.072 8.795-22.817-4.727-7.226-6.781-9.305-10.702-21.917-.053-.172-.098-.318-.235-.353-.137-.035-.169.05-.263.177-4.22 5.57-15.112 26.837 1.704 44.655.19.162.32.265.455.277z"></path>
      <path d="M115.798 217.367a.575.575 0 00.241.058c5-.101 18.252-8.694 15.627-18.808-2.169-8.358-3.45-10.985-3.134-24.188.004-.18.008-.333-.11-.41-.12-.077-.177-.006-.306.083-5.78 3.93-22.898 20.6-12.66 42.858.128.214.22.353.343.407z"></path>
      <path d="M122.304 226.059a.574.574 0 01-.027-.246c.741-4.946 10.962-16.987 20.657-13.087 8.01 3.222 10.451 4.83 23.586 6.21.18.018.331.034.393.161.06.128-.017.175-.122.293-4.639 5.228-23.365 20.068-44.127 7.06-.196-.154-.322-.262-.36-.392z"></path>
      <path d="M156.196 203.692a.574.574 0 01-.094-.23c-.642-4.959 5.887-19.34 16.28-18.246 8.587.904 11.374 1.782 24.385-.492.177-.03.327-.057.421.048.094.106.032.173-.037.315-3.028 6.3-16.97 25.703-40.503 18.883-.23-.094-.381-.164-.453-.278z"></path>
      <path d="M175.581 170.39a.574.574 0 01-.156-.193c-2.062-4.555-.016-20.216 10.243-22.204 8.477-1.643 11.4-1.617 23.179-7.59.161-.082.296-.15.417-.077.12.074.081.156.057.311-1.057 6.91-8.727 29.538-33.225 29.886-.248-.023-.413-.046-.515-.134z"></path>
      <path d="M185.828 129.259a.574.574 0 01-.208-.135c-3.362-3.702-6.228-19.234 2.924-24.278 7.562-4.168 10.35-5.042 19.725-14.346.128-.127.236-.234.373-.201.138.033.126.123.15.279 1.117 6.9.772 30.79-22.433 38.65-.243.054-.407.083-.531.03z"></path>
      <path d="M181.468 90.665a.574.574 0 01-.241-.055c-4.433-2.315-12.477-15.907-5.626-23.797 5.662-6.52 7.979-8.302 13.57-20.267.078-.163.142-.301.282-.318.14-.016.16.073.237.21 3.427 6.092 11.34 28.637-7.735 44.015-.209.135-.353.218-.487.212z"></path>
      <path d="M163.267 63.816c-25.579-.006-27.524-20.434-28.295-30.244-.004-.049.008-.085.04-.09.032-.004.075.039.075.039 7.364 8.752 23.75.953 29.07 28.23 0 0 .289 1.405.03 1.76s-.92.305-.92.305z"></path>
    </g>
  </g>
</svg>
 